<svg xmlns="http://www.w3.org/2000/svg" aria-labelledby="title desc" role="img" viewBox="0 0 800 200"><title id="title">Twilight Hearth</title><desc id="desc">Animated fireplace screensaver for TV with no ads, analytics, or tracking.</desc><rect width="800" height="200" fill="#fff" stroke="#e5e7eb" rx="16"/><text x="40" y="78" fill="#0f172a" font-family="system-ui,-apple-system,'Segoe UI',sans-serif" font-size="40" font-weight="700" letter-spacing="-.5">Twilight Hearth</text><text x="42" y="108" fill="#64748b" font-family="system-ui,-apple-system,'Segoe UI',sans-serif" font-size="14">Animated TV fireplace. No ads, analytics, or tracking.</text><g font-family="system-ui,-apple-system,'Segoe UI',sans-serif" font-size="10" font-weight="500" text-anchor="middle"><rect width="90" height="22" x="40" y="130" fill="#eff6ff" stroke="#93c5fd" stroke-width=".8" rx="11"/><text x="85" y="144" fill="#1e40af">Android TV</text><rect width="78" height="22" x="138" y="130" fill="#f0fdf4" stroke="#86efac" stroke-width=".8" rx="11"/><text x="177" y="144" fill="#166534">Fire TV</text><rect width="84" height="22" x="224" y="130" fill="#f5f3ff" stroke="#c4b5fd" stroke-width=".8" rx="11"/><text x="266" y="144" fill="#6d28d9">Google TV</text></g><g transform="translate(612 25)"><ellipse cx="87" cy="127" fill="#fdba74" opacity=".32" rx="67" ry="23"/><path fill="#b45309" d="M36 145c-9-28 10-42 9-63 18 13 14 25 17 32 2-31 23-54 35-80 3 30 26 45 29 74 5 39-19 51-48 51-21 0-36-4-42-14Z"/><path fill="#f59e0b" d="M54 145c0-18 13-27 16-48 13 12 11 25 15 32 2-18 14-31 23-48 4 22 18 31 18 51 0 20-14 30-37 30-22 0-35-6-35-17Z"/><path fill="#fde68a" d="M81 151c1-13 8-20 15-29 3 14 12 20 11 30-1 11-8 15-15 15-7 0-12-5-11-16Z"/><path stroke="#78350f" stroke-linecap="round" stroke-width="7" d="M21 171h132"/></g></svg>